
              <svg id="sw-js-blob-svg" viewBox="0 0 100 100" xmlns="http://www.w3.org/2000/svg" version="1.1">
                    <defs> 
                        <linearGradient id="sw-gradient" x1="0" x2="1" y1="1" y2="0">
                            <stop id="stop1" stop-color="rgba(248, 117, 55, 1)" offset="0%"></stop>
                            <stop id="stop2" stop-color="rgba(251, 168, 31, 1)" offset="100%"></stop>
                        </linearGradient>
                    </defs>
                <path fill="url(#sw-gradient)" d="M1.8,-10.3C2.1,-3,1.8,-1.9,8.8,-1.2C15.8,-0.6,30.1,-0.3,30.8,0.4C31.6,1.2,18.8,2.3,11.9,3.2C5,4.1,4.1,4.8,3.1,11.3C2.1,17.7,1.1,29.9,0.2,29.6C-0.8,29.4,-1.5,16.6,-3.7,10.9C-6,5.2,-9.7,6.4,-16.7,5.8C-23.7,5.1,-34.1,2.6,-38.2,-2.4C-42.4,-7.4,-40.4,-14.8,-34.4,-17.2C-28.4,-19.6,-18.4,-17,-12,-20.7C-5.6,-24.4,-2.8,-34.3,-1,-32.6C0.8,-30.9,1.6,-17.5,1.8,-10.3Z" width="100%" height="100%" transform="translate(50 50)" stroke-width="0" style="transition: all 0.3s ease 0s;"></path>
              </svg>